<svg xmlns="http://www.w3.org/2000/svg" xmlns:xlink="http://www.w3.org/1999/xlink" version="1.1" x="0px" y="0px" viewBox="0 0 100 125" enable-background="new 0 0 100 100" xml:space="preserve"><title>Send Mail</title><path d="M95,20H29c-2.761,0-5,2.239-5,5v54c0,2.762,2.239,5,5,5h66c2.762,0,5-2.238,5-5V25  C100,22.239,97.762,20,95,20z M29,24h66c0.553,0,1,0.448,1,1l0,0L62,57L28,25.12l0,0c-0.07-0.548,0.318-1.049,0.866-1.118  C28.871,24.001,28.875,24,28.88,24H29z M95,80H29c-0.552,0-1-0.447-1-1V30.64l32.641,30.799c0.771,0.737,1.986,0.737,2.76,0  L96,30.64V79C96,79.553,95.553,80,95,80z M20,44H0v-4h20V44z M20,56H4v-4h16V56z M20,68H8v-4h12V68z"/><text x="0" y="115" fill="#000000" font-size="5px" font-weight="bold" font-family="'Helvetica Neue', Helvetica, Arial-Unicode, Arial, Sans-serif"></text><text x="0" y="120" fill="#000000" font-size="5px" font-weight="bold" font-family="'Helvetica Neue', Helvetica, Arial-Unicode, Arial, Sans-serif"></text></svg>