<svg xmlns="http://www.w3.org/2000/svg" viewBox="0 0 32 40" x="0px" y="0px"><title>menu_1</title><g data-name="17-"><path d="M30,7.0005H11a1,1,0,0,1,0-2H30a1,1,0,0,1,0,2Zm1,9a1,1,0,0,0-1-1H2a1,1,0,0,0,0,2H30A1,1,0,0,0,31,16Zm0,10a1,1,0,0,0-1-1H11a1,1,0,0,0,0,2H30A1,1,0,0,0,31,26Z"/></g><text x="0" y="47" fill="#000000" font-size="5px" font-weight="bold" font-family="'Helvetica Neue', Helvetica, Arial-Unicode, Arial, Sans-serif"></text><text x="0" y="52" fill="#000000" font-size="5px" font-weight="bold" font-family="'Helvetica Neue', Helvetica, Arial-Unicode, Arial, Sans-serif"></text></svg>