<svg xmlns="http://www.w3.org/2000/svg" xmlns:xlink="http://www.w3.org/1999/xlink" version="1.1" x="0px" y="0px" viewBox="0 0 512 640" style="enable-background:new 0 0 512 512;" xml:space="preserve"><g><path d="M441.501,365.746c-18.131-11.505-36.182-23.13-54.233-34.755l-22.033-14.179c-15.467-9.949-33.338-8.352-46.65,4.151   l-22.831,21.504c-1.247,1.158-1.726,1.138-2.894,0.858c-10.288-2.654-19.239-8.452-29.047-15.197   c-23.34-16.035-42.049-36.661-55.74-52.836c-9.869-11.665-18.939-24.088-26.952-36.921c-3.961-6.336-6.845-13.521-9.909-21.115   l-3.283-8.003c-0.519-1.207-0.918-2.155,1.816-4.6c7.424-6.596,14.768-13.331,21.743-20.386   c10.278-10.378,12.842-24.856,6.306-38.567c-14.349-30.145-28.708-60.3-43.486-90.236c-3.582-7.254-9.729-12.194-13.072-14.489   c-9.809-6.716-22.601-4.73-33.368,5.229L88.84,63.896C76.097,75.79,63.355,87.675,50.393,99.33   c-12.553,11.286-18.8,25.106-19.089,42.259c-0.309,17.752,2.694,36.561,9.44,59.193c9.539,31.991,25.595,63.793,50.521,100.075   c19.987,29.117,43.896,54.802,64.641,76.096c35.613,36.541,75.278,65.489,117.896,86.035c20.925,10.088,38.757,15.986,56.089,18.56   c3.572,0.539,7.125,1.187,10.687,1.826l5.259,0.948c0.359,0.06,0.728,0.1,1.088,0.12l12.683,0.239l2.654-0.519   c2.365-0.449,4.73-0.908,7.075-1.547c7.763-2.115,14.978-6.217,21.424-12.184l20.326-18.74   c12.922-11.884,25.854-23.779,38.627-35.833c3.243-3.063,5.438-6.726,7.374-9.969c0.748-1.237,1.477-2.475,2.275-3.642   c0.858-1.277,1.347-2.764,1.407-4.291l0.279-7.394c0.03-0.968-0.1-1.936-0.399-2.864   C457.107,376.822,448.985,370.496,441.501,365.746z M444.514,395.113c-0.489,0.778-0.968,1.587-1.447,2.385   c-1.537,2.555-2.974,4.959-4.57,6.466c-12.723,12.014-25.605,23.859-38.477,35.693l-20.376,18.78   c-4.55,4.221-9.33,6.965-14.599,8.402c-1.926,0.519-3.882,0.888-5.847,1.257l-0.928,0.399l-10.148-0.369l-4.62-0.838   c-3.722-0.669-7.444-1.347-11.206-1.906c-15.666-2.325-31.991-7.763-51.389-17.123c-40.902-19.718-79.02-47.548-113.286-82.722   c-20.266-20.795-43.586-45.841-62.885-73.941c-23.928-34.835-39.285-65.18-48.326-95.484c-6.257-20.975-9.041-38.218-8.761-54.243   c0.22-12.533,4.56-22.182,13.681-30.385C74.361,99.769,87.184,87.814,99.996,75.85l18.969-17.642   c1.846-1.706,8.272-6.995,13.012-3.762c3.413,2.345,6.276,5.428,7.663,8.252c14.758,29.866,29.077,59.951,43.766,90.814   c3.163,6.626,1.836,13.83-3.542,19.259c-6.726,6.815-13.81,13.291-20.985,19.678c-10.018,8.931-8.053,18.37-5.997,23.21   l3.163,7.703c3.193,7.923,6.486,16.105,11.206,23.669c8.432,13.501,17.971,26.563,28.349,38.816   c14.349,16.963,34.017,38.627,58.953,55.75c10.697,7.364,21.374,14.249,34.236,17.552c6.686,1.736,12.992,0.08,18.171-4.78   l22.801-21.474c7.823-7.354,17.542-8.172,26.633-2.335l22.023,14.17c18.081,11.645,36.162,23.29,54.323,34.825   c5.638,3.582,9.859,7.035,11.904,11.974L444.514,395.113z"/><path d="M412.912,111.683C366.193,60.473,302.32,30.518,233.07,27.345c-4.351-0.359-8.342,3.273-8.542,7.783   c-0.21,4.51,3.283,8.342,7.783,8.542c64.9,2.974,124.741,31.043,168.527,79.03c43.776,47.987,66.247,110.153,63.274,175.043   c-0.21,4.51,3.273,8.342,7.783,8.542c0.13,0.01,0.259,0.01,0.389,0.01c4.341,0,7.953-3.413,8.152-7.793   C483.62,229.24,459.642,162.903,412.912,111.683z"/><path d="M228.938,117.211c45.253,2.076,86.983,21.653,117.507,55.111c30.534,33.458,46.201,76.805,44.125,122.047   c-0.21,4.51,3.273,8.342,7.783,8.542c0.13,0.01,0.259,0.01,0.389,0.01c4.341,0,7.953-3.413,8.152-7.793   c2.275-49.613-14.898-97.141-48.366-133.822c-33.468-36.691-79.229-58.145-128.833-60.42c-4.42-0.319-8.332,3.263-8.542,7.783   C220.946,113.18,224.428,117.012,228.938,117.211z"/><path d="M225.576,190.703c52.876,2.425,93.928,47.418,91.503,100.294c-0.21,4.51,3.283,8.342,7.783,8.542   c0.13,0.01,0.259,0.01,0.389,0.01c4.341,0,7.953-3.413,8.152-7.793c2.844-61.887-45.193-114.543-107.07-117.377   c-4.49-0.22-8.332,3.273-8.542,7.783S221.075,190.503,225.576,190.703z"/></g><text x="0" y="527" fill="#000000" font-size="5px" font-weight="bold" font-family="'Helvetica Neue', Helvetica, Arial-Unicode, Arial, Sans-serif"></text><text x="0" y="532" fill="#000000" font-size="5px" font-weight="bold" font-family="'Helvetica Neue', Helvetica, Arial-Unicode, Arial, Sans-serif"></text></svg>